# xmcd
#
# Track frame offsets:
#	150
#	14378
#	26695
#	40770
#	51787
#	69548
#	82543
#	96817
#	114358
#	128051
#	144865
#	168851
#	185321
#	199949
#	215203
#
# Disc length: 3120 seconds
#
# Revision: 0
# Processed by: cddbd v1.4PL0 Copyright (c) Steve Scherf et al.
# Submitted via: EasyCDDAExtractor 4.6.0.1
#
DISCID=c10c2e0f
DTITLE=Rivaldo and Ricardo - Ao vivo
DYEAR=2003
DGENRE=Sertanejo
TTITLE0=Fora do rodeio
TTITLE1=Vida boa
TTITLE2=Eu já caí fora
TTITLE3=Espuma de cerveja
TTITLE4=Pra viver a minha vida
TTITLE5=Hoje eu quebro o coco
TTITLE6=E a gente faz amor
TTITLE7=Ou te amo, ou te esqueço
TTITLE8=Do outro lado da cidade
TTITLE9=Paciência
TTITLE10=Yolanda
TTITLE11=Meus doze amores (Bônus Estúdio)
TTITLE12=Você vai gostar (Bônus Estúdio)
TTITLE13=Mulher, cachaça e viola (Bônus Estúdio)
TTITLE14=Fã nº1 (Bônus Estúdio)
EXTD=
EXTT0=
EXTT1=
EXTT2=
EXTT3=
EXTT4=
EXTT5=
EXTT6=
EXTT7=
EXTT8=
EXTT9=
EXTT10=
EXTT11=
EXTT12=
EXTT13=
EXTT14=
PLAYORDER=
